# xmcd CD database file generated by OrangeCD 6.5
#
# Track frame offsets:
#	150
#	10932
#	27787
#	38412
#	51907
#	68225
#	79150
#	92137
#	105965
#	119427
#	132155
#	144490
#	159260
#	172587
#	188350
#	200512
#	214907
#	231335
#	246042
#	259565
#	274315
#
# Disc length: 3849 seconds
#
# Revision: 2
# Processed by: cddbd v1.5.2PL0 Copyright (c) Steve Scherf et al.
# Submitted via: OrangeCD 6.5
#
DISCID=110f0715
DTITLE=Ronnie Milsap - The Essential Ronnie Milsap [Double Disc], Disc 1
DYEAR=2006
DGENRE=Country
TTITLE0=Daydreams About Night Things
TTITLE1=Smoky Mountain Rain
TTITLE2=Pure Love
TTITLE3=That Girl Who Waits On Tables
TTITLE4=It Was Almost Like A Song
TTITLE5=(All Together Now) Let's Fall Apart
TTITLE6=What Goes On When The Sun Goes Down
TTITLE7=Don't You Ever Get Tired (Of Hurting Me)
TTITLE8=(I'm A) Stand By My Woman Man
TTITLE9=I Hate You
TTITLE10=Please Don't Tell Me How The Story Ends
TTITLE11=(There's) No Gettin' Over Me
TTITLE12=(I'd Be) A Legend In My Time
TTITLE13=Only One Love In My Liffe
TTITLE14=My Heart
TTITLE15=Stranger Things Have Happened
TTITLE16=Am I Losing You
TTITLE17=A Woman In Love
TTITLE18=Just In Case
TTITLE19=Back On My Mind Again
TTITLE20=Let My Love Be Your Pillow
EXTD=Compilation of Ronnie Milsaps Greatest Hits and popular songs.\nwww.legacy
EXTD=recordings.com
EXTT0=
EXTT1=
EXTT2=
EXTT3=
EXTT4=
EXTT5=
EXTT6=
EXTT7=
EXTT8=
EXTT9=
EXTT10=
EXTT11=
EXTT12=
EXTT13=
EXTT14=
EXTT15=
EXTT16=
EXTT17=
EXTT18=
EXTT19=
EXTT20=
PLAYORDER=
